<svg xmlns="http://www.w3.org/2000/svg" width="36" height="36" viewBox="0 0 36 36"><defs><style>.a{fill:#09c;}.b{fill:#fff;}</style></defs><g transform="translate(-733 -462)"><g transform="translate(733 462)"><g transform="translate(0 0)"><path class="a" d="M18-.3a18,18,0,1,0,18,18A18,18,0,0,0,18-.3Zm7.587,18.573a1.309,1.309,0,0,1-.58.58v.008L14.722,24.006a1.284,1.284,0,0,1-1.861-1.153v-10.3a1.288,1.288,0,0,1,1.288-1.288,1.234,1.234,0,0,1,.573.136l10.285,5.146A1.291,1.291,0,0,1,25.587,18.273Z" transform="translate(0 0.3)"/></g><path class="b" d="M171.851,165.863l10.228-5.117v-.007a1.3,1.3,0,0,0,.577-.577,1.278,1.278,0,0,0-.577-1.716l-10.228-5.11A1.279,1.279,0,0,0,170,154.481v10.227a1.282,1.282,0,0,0,1.851,1.154Z" transform="translate(-157.152 -141.599)"/></g></g></svg>